<svg width="166" height="44" viewBox="0 0 166 44" fill="none" xmlns="http://www.w3.org/2000/svg">
<path d="M27.3162 10.775H29.9192V28.8315H37.7284V31.4258H27.3162V10.775ZM45.837 10.775C47.3815 10.775 48.8913 11.2314 50.1755 12.0866C51.4597 12.9419 52.4608 14.1573 53.0518 15.5795C53.6428 17.0017 53.7974 18.5666 53.4961 20.0763C53.1948 21.5861 52.4511 22.9729 51.3589 24.0613C50.2668 25.1499 48.8753 25.8911 47.3604 26.1914C45.8457 26.4917 44.2755 26.3376 42.8485 25.7485C41.4215 25.1594 40.202 24.1618 39.3439 22.8819C38.4858 21.602 38.0278 20.0973 38.0278 18.558C38.0278 17.5359 38.2298 16.5237 38.6222 15.5795C39.0146 14.6352 39.5899 13.7772 40.3151 13.0546C41.0402 12.3318 41.901 11.7585 42.8485 11.3674C43.7959 10.9763 44.8115 10.775 45.837 10.775ZM45.837 23.7466C46.8666 23.7466 47.8732 23.4423 48.7294 22.8722C49.5855 22.302 50.2528 21.4916 50.6468 20.5435C51.0409 19.5954 51.144 18.5522 50.943 17.5456C50.7422 16.5392 50.2463 15.6147 49.5182 14.889C48.7902 14.1634 47.8626 13.6692 46.8527 13.469C45.8427 13.2688 44.796 13.3715 43.8447 13.7643C42.8934 14.1569 42.0802 14.822 41.5082 15.6753C40.9362 16.5285 40.6309 17.5318 40.6309 18.558C40.6378 19.9296 41.1892 21.2427 42.1648 22.2101C43.1405 23.1776 44.4607 23.7207 45.837 23.7207V23.7466ZM40.6309 28.8575H51.0431V31.4518H40.6309V28.8575ZM73.9501 31.4518H71.3471V29.5968C69.6683 30.7679 67.6694 31.3973 65.6203 31.3999C63.873 31.4116 62.1508 30.9848 60.6125 30.1589C59.0741 29.3329 57.7691 28.1344 56.8176 26.6738C55.8661 25.2132 55.2986 23.5374 55.1677 21.8007C55.0366 20.0642 55.3463 18.3226 56.068 16.7367C56.7897 15.1507 57.9003 13.7712 59.2973 12.7254C60.6945 11.6795 62.3333 11.0008 64.0626 10.752C65.7921 10.5031 67.5566 10.6921 69.1934 11.3013C70.8303 11.9106 72.2872 12.9206 73.4295 14.2384L71.5163 15.9377C70.6473 14.9695 69.5492 14.2335 68.3218 13.7967C67.0944 13.3598 65.7769 13.2361 64.4893 13.4367C63.2015 13.6374 61.9849 14.1561 60.9498 14.9455C59.9148 15.7349 59.0944 16.7698 58.5637 17.9562C58.0328 19.1425 57.8082 20.4422 57.9105 21.7372C58.0128 23.0321 58.4386 24.2809 59.1492 25.3698C59.8598 26.4586 60.8325 27.353 61.9787 27.9712C63.1249 28.5895 64.4082 28.9119 65.7114 28.9093C66.793 28.9115 67.8623 28.6809 68.8463 28.2331C69.8301 27.7853 70.7054 27.1311 71.4121 26.315H64.3838V23.7207H73.9762L73.9501 31.4518ZM83.5294 10.8268C85.0739 10.8268 86.5837 11.2833 87.868 12.1385C89.1522 12.9938 90.1532 14.2092 90.7442 15.6314C91.3352 17.0536 91.4899 18.6185 91.1886 20.1282C90.8872 21.6379 90.1435 23.0247 89.0513 24.1132C87.9592 25.2018 86.5677 25.943 85.0529 26.2433C83.5381 26.5436 81.968 26.3895 80.541 25.8004C79.114 25.2113 77.8944 24.2137 77.0363 22.9338C76.1782 21.6539 75.7202 20.1492 75.7202 18.6098C75.7133 17.5812 75.9111 16.5615 76.3021 15.6095C76.6931 14.6575 77.2696 13.7922 77.9982 13.0637C78.7268 12.3351 79.5931 11.7577 80.547 11.3648C81.5008 10.972 82.5233 10.7715 83.5554 10.775L83.5294 10.8268ZM83.5294 23.7985C84.5591 23.7985 85.5657 23.4942 86.4218 22.9241C87.278 22.3539 87.9453 21.5435 88.3392 20.5954C88.7333 19.6473 88.8364 18.6041 88.6355 17.5975C88.4346 16.5911 87.9387 15.6666 87.2107 14.9409C86.4826 14.2153 85.555 13.7211 84.5451 13.5209C83.5351 13.3206 82.4884 13.4234 81.5372 13.8162C80.5859 14.2088 79.7727 14.8739 79.2006 15.7271C78.6286 16.5804 78.3233 17.5837 78.3233 18.6098C78.3438 19.9769 78.9049 21.2807 79.8847 22.2378C80.8644 23.1947 82.1836 23.7277 83.5554 23.7207L83.5294 23.7985ZM78.3233 28.9093H88.7355V31.5037H78.3233V28.9093ZM94.1109 10.775H96.714V31.3999H94.1109V10.775ZM100.319 10.775H102.922C103.056 10.7608 103.192 10.7608 103.326 10.775C104.416 10.657 105.519 10.7694 106.563 11.1044C107.606 11.4396 108.568 11.99 109.384 12.7199C110.2 13.4498 110.853 14.3429 111.299 15.341C111.746 16.339 111.977 17.4197 111.977 18.5126C111.977 19.6054 111.746 20.6861 111.299 21.6841C110.853 22.6822 110.2 23.5753 109.384 24.3052C108.568 25.0351 107.606 25.5855 106.563 25.9207C105.519 26.2557 104.416 26.3681 103.326 26.2502H102.922V31.4388H100.319V10.775ZM102.922 13.3693V23.6299H103.326C104.061 23.7274 104.809 23.6674 105.519 23.4535C106.229 23.2397 106.885 22.8771 107.443 22.3902C108.001 21.9032 108.448 21.303 108.754 20.6298C109.061 19.9566 109.219 19.2259 109.219 18.4866C109.219 17.7474 109.061 17.0167 108.754 16.3434C108.448 15.6702 108.001 15.07 107.443 14.583C106.885 14.096 106.229 13.7335 105.519 13.5196C104.809 13.3059 104.061 13.2458 103.326 13.3433C103.184 13.358 103.044 13.3885 102.909 13.4341L102.922 13.3693ZM121.677 12.2667L119.751 13.7844C119.419 13.4383 118.994 13.1939 118.527 13.08C118.061 12.9661 117.571 12.9874 117.116 13.1414C116.66 13.2952 116.259 13.5754 115.958 13.949C115.657 14.3226 115.469 14.774 115.417 15.2502V15.4577C115.417 16.5992 116.211 17.3646 117.76 17.4683C123.721 17.8315 126.454 20.6204 126.454 24.3044V24.5379C126.3 25.9959 125.729 27.3792 124.809 28.5233C123.889 29.6674 122.659 30.5239 121.265 30.9913C119.87 31.4585 118.371 31.5169 116.944 31.1593C115.518 30.8018 114.224 30.0433 113.217 28.9742L115.209 27.4435C115.672 27.9387 116.238 28.3273 116.868 28.5827C117.497 28.838 118.174 28.954 118.853 28.9223C120.107 28.9882 121.337 28.5688 122.288 27.7518C123.239 26.9348 123.836 25.7833 123.955 24.5379V24.3563C123.955 20.8929 120.545 20.2572 117.591 19.9719C114.857 19.7124 112.892 18.0131 112.892 15.5615V15.4577C112.988 14.1813 113.573 12.9905 114.525 12.1313C115.476 11.2719 116.723 10.8096 118.007 10.8398C118.687 10.8198 119.364 10.9422 119.994 11.1991C120.624 11.4561 121.193 11.8419 121.664 12.3316L121.677 12.2667ZM136.645 28.7667C139.886 28.7667 142.45 25.2773 142.45 20.9837V10.6063H145.053V20.9837C145.053 26.6912 141.304 31.2961 136.697 31.2961C132.09 31.2961 128.341 26.6912 128.341 20.9837V10.6063H130.944V20.9837C130.84 25.3421 133.404 28.8315 136.632 28.8315L136.645 28.7667ZM165.031 31.361H162.428V18.519L156.428 26.302L150.428 18.519V31.3999H147.825V10.775L156.415 22.0473L165.005 10.775L165.031 31.361Z" fill="#A1A1AA"/>
<path d="M14.8211 7.67475C14.8211 5.80322 14.0752 4.00835 12.7474 2.68499C11.4195 1.36162 9.61857 0.618164 7.74075 0.618164C5.86292 0.618164 4.06201 1.36162 2.73419 2.68499C1.40636 4.00835 0.6604 5.80322 0.6604 7.67475V29.0131L6.49127 33.177V43.3209H8.99022V33.177L14.8211 29.0131V7.67475ZM12.3221 19.6087L8.99022 22.9294V19.8162L12.3221 16.4955V19.6087ZM3.21141 16.4955L6.54333 19.8162V22.9294L3.21141 19.6087V16.4955ZM12.3221 12.9672L7.74075 17.5332L3.15935 12.8634V9.75022L7.74075 14.3162L12.3221 9.75022V12.9672ZM7.74075 3.10872C8.74833 3.11316 9.72667 3.44667 10.5259 4.05816C11.3252 4.66964 11.9012 5.52538 12.166 6.49433L7.74075 10.8917L3.31553 6.49433C3.57055 5.51575 4.14249 4.6484 4.94262 4.02687C5.74275 3.40533 6.72632 3.06435 7.74075 3.05682V3.10872ZM3.15935 27.7549V23.0851L6.49127 26.4058V30.1157L3.15935 27.7549ZM8.99022 30.1287V26.4058L12.3221 23.0851V27.7419L8.99022 30.1287Z" fill="#A1A1AA"/>
</svg>
