<svg width="190" height="47" viewBox="0 0 190 47" fill="none" xmlns="http://www.w3.org/2000/svg">
<path d="M64.9164 34.2443L58.0776 11.0557H65.0976L68.2679 25.3221H68.4491L72.2082 11.0557H77.7336L81.4926 25.3674H81.6738L84.8441 11.0557H91.8641L85.0253 34.2443H79.0017L75.0614 21.2913H74.8803L70.94 34.2443H64.9164Z" fill="#D4D4D8"/>
<path d="M96.8148 34.516C95.7052 34.516 94.724 34.3349 93.871 33.9726C93.0256 33.6027 92.3613 33.0441 91.8782 32.2968C91.3951 31.5495 91.1536 30.5984 91.1536 29.4435C91.1536 28.4924 91.3159 27.681 91.6405 27.0092C91.965 26.3298 92.4179 25.775 92.9992 25.3448C93.5804 24.9145 94.256 24.5862 95.0259 24.3597C95.8034 24.1333 96.6412 23.9861 97.5395 23.9181C98.5132 23.8427 99.2945 23.7521 99.8833 23.6464C100.48 23.5332 100.91 23.3784 101.174 23.1822C101.438 22.9784 101.57 22.7104 101.57 22.3783V22.333C101.57 21.8801 101.397 21.5329 101.049 21.2913C100.702 21.0498 100.257 20.929 99.7134 20.929C99.1171 20.929 98.6302 21.0611 98.2528 21.3253C97.8829 21.5819 97.6603 21.9782 97.5848 22.5141H91.8329C91.9084 21.4574 92.2443 20.4836 92.8406 19.5929C93.4445 18.6947 94.3239 17.9776 95.4788 17.4417C96.6337 16.8982 98.0754 16.6264 99.804 16.6264C101.049 16.6264 102.167 16.7736 103.155 17.068C104.144 17.3548 104.986 17.7587 105.68 18.2795C106.375 18.7928 106.903 19.3967 107.266 20.0911C107.635 20.778 107.82 21.5253 107.82 22.333V34.2443H101.978V31.7986H101.842C101.495 32.4478 101.072 32.9724 100.574 33.3725C100.083 33.7725 99.5209 34.0631 98.8869 34.2443C98.2604 34.4255 97.5697 34.516 96.8148 34.516ZM98.8529 30.5758C99.3285 30.5758 99.7738 30.4777 100.189 30.2814C100.612 30.0851 100.955 29.8021 101.219 29.4322C101.484 29.0623 101.616 28.6132 101.616 28.0848V26.6356C101.45 26.7035 101.272 26.7676 101.083 26.828C100.902 26.8884 100.706 26.945 100.495 26.9979C100.291 27.0507 100.072 27.0998 99.838 27.1451C99.6115 27.1904 99.3737 27.2319 99.1246 27.2696C98.6416 27.3451 98.2453 27.4696 97.9358 27.6433C97.6338 27.8093 97.4074 28.0169 97.2564 28.266C97.113 28.5075 97.0413 28.7793 97.0413 29.0812C97.0413 29.5643 97.2111 29.9342 97.5508 30.1908C97.8905 30.4475 98.3245 30.5758 98.8529 30.5758Z" fill="#D4D4D8"/>
<path d="M127.711 16.8529L121.869 34.2443H114.622L108.78 16.8529H115.347L118.155 28.3566H118.336L121.144 16.8529H127.711Z" fill="#D4D4D8"/>
<path d="M137.293 34.5613C135.436 34.5613 133.836 34.2066 132.492 33.497C131.156 32.7799 130.126 31.7533 129.401 30.4173C128.684 29.0737 128.325 27.4659 128.325 25.5939C128.325 23.7974 128.688 22.2273 129.412 20.8837C130.137 19.5401 131.16 18.4946 132.481 17.7474C133.802 17.0001 135.361 16.6264 137.157 16.6264C138.47 16.6264 139.659 16.8302 140.724 17.2378C141.788 17.6455 142.698 18.238 143.452 19.0155C144.207 19.7854 144.788 20.7214 145.196 21.8235C145.604 22.9255 145.807 24.1672 145.807 25.5486V26.9979H130.273V23.5558H140.056C140.048 23.0576 139.92 22.6198 139.671 22.2424C139.429 21.8574 139.101 21.5593 138.686 21.3479C138.278 21.129 137.814 21.0196 137.293 21.0196C136.787 21.0196 136.323 21.129 135.9 21.3479C135.478 21.5593 135.138 21.8537 134.881 22.2311C134.632 22.6085 134.5 23.0501 134.485 23.5558V27.2696C134.485 27.8282 134.602 28.3264 134.836 28.7642C135.07 29.202 135.406 29.5454 135.844 29.7945C136.281 30.0436 136.81 30.1682 137.429 30.1682C137.859 30.1682 138.252 30.1078 138.606 29.987C138.969 29.8662 139.278 29.6926 139.535 29.4662C139.791 29.2322 139.98 28.9529 140.101 28.6283H145.807C145.611 29.8361 145.147 30.8853 144.415 31.776C143.683 32.6591 142.713 33.346 141.505 33.8367C140.305 34.3198 138.901 34.5613 137.293 34.5613Z" fill="#D4D4D8"/>
<path d="M148.358 34.2443V16.8529H154.427V20.1591H154.608C154.925 18.9362 155.427 18.0417 156.114 17.4756C156.808 16.9095 157.62 16.6264 158.548 16.6264C158.82 16.6264 159.088 16.6491 159.352 16.6944C159.624 16.7321 159.884 16.7887 160.133 16.8642V22.1971C159.824 22.0914 159.443 22.0122 158.99 21.9593C158.537 21.9065 158.148 21.8801 157.823 21.8801C157.212 21.8801 156.661 22.0197 156.17 22.299C155.687 22.5708 155.306 22.9557 155.027 23.4539C154.748 23.9446 154.608 24.522 154.608 25.1863V34.2443H148.358Z" fill="#D4D4D8"/>
<path d="M162.183 34.2443V16.8529H168.433V34.2443H162.183ZM165.308 15.0413C164.462 15.0413 163.738 14.762 163.134 14.2034C162.53 13.6448 162.228 12.973 162.228 12.188C162.228 11.403 162.53 10.7312 163.134 10.1726C163.738 9.61401 164.462 9.33472 165.308 9.33472C166.161 9.33472 166.885 9.61401 167.482 10.1726C168.085 10.7312 168.387 11.403 168.387 12.188C168.387 12.973 168.085 13.6448 167.482 14.2034C166.885 14.762 166.161 15.0413 165.308 15.0413Z" fill="#D4D4D8"/>
<path d="M179.996 34.5613C178.109 34.5613 176.493 34.1877 175.15 33.4404C173.806 32.6856 172.776 31.6363 172.059 30.2927C171.342 28.9416 170.983 27.3753 170.983 25.5939C170.983 23.8125 171.342 22.25 172.059 20.9063C172.776 19.5552 173.806 18.506 175.15 17.7587C176.493 17.0038 178.109 16.6264 179.996 16.6264C181.883 16.6264 183.498 17.0038 184.842 17.7587C186.185 18.506 187.216 19.5552 187.933 20.9063C188.65 22.25 189.009 23.8125 189.009 25.5939C189.009 27.3753 188.65 28.9416 187.933 30.2927C187.216 31.6363 186.185 32.6856 184.842 33.4404C183.498 34.1877 181.883 34.5613 179.996 34.5613ZM180.041 29.9417C180.57 29.9417 181.026 29.7643 181.411 29.4096C181.796 29.0548 182.094 28.5491 182.306 27.8924C182.517 27.2356 182.623 26.4544 182.623 25.5486C182.623 24.6352 182.517 23.854 182.306 23.2048C182.094 22.5481 181.796 22.0424 181.411 21.6876C181.026 21.3328 180.57 21.1554 180.041 21.1554C179.483 21.1554 179.003 21.3328 178.603 21.6876C178.203 22.0424 177.897 22.5481 177.686 23.2048C177.475 23.854 177.369 24.6352 177.369 25.5486C177.369 26.4544 177.475 27.2356 177.686 27.8924C177.897 28.5491 178.203 29.0548 178.603 29.4096C179.003 29.7643 179.483 29.9417 180.041 29.9417Z" fill="#D4D4D8"/>
<path fill-rule="evenodd" clip-rule="evenodd" d="M9.86161 4.48734C8.21201 5.64079 6.72033 7.00454 5.42541 8.53972C10.717 8.04845 17.4399 8.85064 25.245 12.7532C33.5798 16.9205 40.2914 17.0614 44.9624 16.1605C44.5385 14.8772 44.0049 13.644 43.3729 12.4716C38.026 13.0355 31.1712 12.289 23.1825 8.29479C18.1096 5.75834 13.6378 4.71349 9.86161 4.48734ZM40.2495 8.02575C36.0269 3.30793 29.8906 0.338867 23.0607 0.338867C21.055 0.338867 19.1089 0.594965 17.2537 1.07621C19.7663 1.76181 22.4356 2.76484 25.245 4.16956C31.0939 7.09396 36.1435 8.03557 40.2495 8.02575ZM45.961 20.6647C40.3181 21.779 32.5257 21.5501 23.1825 16.8785C14.4475 12.511 7.49524 12.566 2.80638 13.608C2.56435 13.6617 2.32803 13.7182 2.09741 13.777C1.48352 15.1121 0.993496 16.5161 0.641898 17.974C1.01742 17.8736 1.40547 17.7783 1.80584 17.6893C7.49424 16.4252 15.5315 16.4801 25.245 21.3369C33.9801 25.7044 40.9323 25.6494 45.6212 24.6074C45.7819 24.5718 45.9402 24.5349 46.0958 24.4968C46.1129 24.1333 46.1214 23.7674 46.1214 23.3996C46.1214 22.4743 46.067 21.5616 45.961 20.6647ZM45.3429 29.3634C39.7547 30.3404 32.1893 29.9654 23.1825 25.4621C14.4475 21.0947 7.49524 21.1497 2.80638 22.1917C1.76559 22.4228 0.829309 22.7045 0.0033784 23.0019C0.00112652 23.1341 0 23.2667 0 23.3996C0 36.1357 10.3246 46.4603 23.0607 46.4603C33.7345 46.4603 42.7145 39.2087 45.3429 29.3634Z" fill="#7F57F1"/>
</svg>
