<svg width="162" height="39" viewBox="0 0 162 39" fill="none" xmlns="http://www.w3.org/2000/svg">
<path d="M27.0566 17.8578C28.4294 16.7082 29.3024 14.9815 29.3024 13.0509C29.3024 11.1203 28.4294 9.39364 27.0566 8.24405C27.214 8.16786 27.3654 8.08518 27.5096 7.99557C28.4202 7.4294 29.4949 7.10242 30.646 7.10242C33.9313 7.10242 36.5945 9.7657 36.5945 13.0509C36.5945 16.3362 33.9313 18.9994 30.646 18.9994C29.4949 18.9994 28.4202 18.6724 27.5096 18.1063C27.3654 18.0167 27.214 17.934 27.0566 17.8578Z" fill="url(#paint0_linear_527_2730)"/>
<path d="M25.4051 13.9871C26.0191 12.3052 25.9118 10.3733 24.9465 8.70138C23.9812 7.02944 22.3618 5.97056 20.5981 5.66138C20.6963 5.51677 20.786 5.36945 20.8661 5.21973C21.3716 4.27414 22.1389 3.45359 23.1358 2.87802C25.981 1.23539 29.6191 2.2102 31.2617 5.05532C32.9043 7.90045 31.9295 11.5385 29.0843 13.1811C28.0874 13.7567 26.9931 14.0109 25.9215 13.9759C25.7519 13.9703 25.5793 13.9745 25.4051 13.9871Z" fill="url(#paint1_linear_527_2730)"/>
<path d="M22.0384 11.4614C21.7292 9.69779 20.6703 8.0784 18.9984 7.1131C17.3265 6.1478 15.3946 6.04049 13.7126 6.65455C13.7254 6.48024 13.7295 6.30777 13.7239 6.1381C13.6889 5.06643 13.9431 3.97216 14.5187 2.97524C16.1614 0.13012 19.7994 -0.844692 22.6445 0.797941C25.4896 2.44057 26.4645 6.07862 24.8218 8.92378C24.2462 9.92065 23.4257 10.688 22.48 11.1935C22.3304 11.2735 22.1831 11.3633 22.0384 11.4614Z" fill="url(#paint2_linear_527_2730)"/>
<path d="M17.8602 10.9571C16.7106 9.58434 14.9839 8.71137 13.0532 8.71137C11.1226 8.71137 9.39594 9.58434 8.24636 10.9571C8.17021 10.7998 8.08751 10.6484 7.99787 10.5041C7.43172 9.59358 7.10474 8.51886 7.10474 7.3677C7.10474 4.08243 9.76797 1.41919 13.0532 1.41919C16.3385 1.41919 19.0017 4.08243 19.0017 7.3677C19.0017 8.51886 18.6748 9.59358 18.1087 10.5041C18.0189 10.6484 17.9363 10.7998 17.8602 10.9571Z" fill="url(#paint3_linear_527_2730)"/>
<path d="M13.9884 12.6097C12.3065 11.9956 10.3746 12.1029 8.70262 13.0682C7.03067 14.0335 5.97179 15.6529 5.66262 17.4165C5.51801 17.3183 5.37068 17.2286 5.22096 17.1486C4.27537 16.643 3.45481 15.8757 2.87925 14.8788C1.2366 12.0337 2.21141 8.39568 5.05655 6.75303C7.90168 5.11038 11.5397 6.08519 13.1824 8.93035C13.758 9.92722 14.0122 11.0215 13.9771 12.0932C13.9716 12.2628 13.9757 12.4353 13.9884 12.6097Z" fill="url(#paint4_linear_527_2730)"/>
<path d="M11.4618 15.976C9.69807 16.2852 8.07869 17.3441 7.11339 19.016C6.14809 20.688 6.04078 22.6198 6.65485 24.3018C6.48052 24.289 6.30803 24.2849 6.13834 24.2904C5.06667 24.3255 3.97241 24.0713 2.9755 23.4957C0.130364 21.853 -0.844449 18.2151 0.798186 15.3699C2.44082 12.5248 6.07887 11.5499 8.924 13.1926C9.92091 13.7682 10.6882 14.5887 11.1937 15.5342C11.2737 15.684 11.3636 15.8313 11.4618 15.976Z" fill="url(#paint5_linear_527_2730)"/>
<path d="M10.9564 20.1544C9.58359 21.304 8.71058 23.0307 8.71058 24.9612C8.71058 26.8918 9.58359 28.6185 10.9564 29.7681C10.799 29.8442 10.6476 29.927 10.5034 30.0166C9.59287 30.5827 8.5181 30.9097 7.36696 30.9097C4.08169 30.9097 1.41846 28.2465 1.41846 24.9612C1.41846 21.6759 4.08169 19.0127 7.36696 19.0127C8.5181 19.0127 9.59287 19.3397 10.5034 19.9059C10.6476 19.9955 10.799 20.0782 10.9564 20.1544Z" fill="url(#paint6_linear_527_2730)"/>
<path d="M12.6077 24.0264C11.9936 25.7083 12.1009 27.6402 13.0662 29.3121C14.0315 30.9842 15.6509 32.0429 17.4146 32.3521C17.3164 32.4968 17.2267 32.6441 17.1466 32.7939C16.6411 33.7394 15.8738 34.5599 14.8769 35.1355C12.0317 36.7782 8.3937 35.8033 6.75107 32.9582C5.10843 30.1131 6.08325 26.4751 8.92837 24.8324C9.92529 24.2568 11.0196 24.0026 12.0912 24.0377C12.2609 24.0432 12.4334 24.0391 12.6077 24.0264Z" fill="url(#paint7_linear_527_2730)"/>
<path d="M15.9746 26.5527C16.2837 28.3164 17.3426 29.9358 19.0146 30.901C20.6865 31.8663 22.6185 31.9736 24.3004 31.3596C24.2877 31.5339 24.2836 31.7063 24.2891 31.8761C24.3242 32.9477 24.07 34.042 23.4944 35.0389C21.8517 37.8841 18.2137 38.8588 15.3686 37.2161C12.5234 35.5736 11.5486 31.9356 13.1913 29.0904C13.7669 28.0935 14.5874 27.3262 15.5329 26.8207C15.6827 26.7406 15.83 26.6508 15.9746 26.5527Z" fill="url(#paint8_linear_527_2730)"/>
<path d="M20.1533 27.0585C21.3029 28.4313 23.0296 29.3042 24.9602 29.3042C26.8909 29.3042 28.6176 28.4313 29.7672 27.0585C29.8432 27.2158 29.9259 27.3672 30.0156 27.5113C30.5817 28.4219 30.9087 29.4967 30.9087 30.6479C30.9087 33.9332 28.2455 36.5964 24.9602 36.5964C21.6749 36.5964 19.0117 33.9332 19.0117 30.6479C19.0117 29.4967 19.3387 28.4219 19.9048 27.5113C19.9945 27.3672 20.0772 27.2158 20.1533 27.0585Z" fill="url(#paint9_linear_527_2730)"/>
<path d="M24.0249 25.4067C25.7069 26.0207 27.6387 25.9134 29.3107 24.9482C30.9826 23.9829 32.0415 22.3635 32.3507 20.5999C32.4952 20.6979 32.6426 20.7878 32.7923 20.8678C33.7379 21.3733 34.5585 22.1406 35.134 23.1375C36.7767 25.9827 35.8018 29.6207 32.9568 31.2634C30.1116 32.906 26.4736 31.9312 24.8309 29.086C24.2553 28.0891 24.0012 26.9948 24.0361 25.9232C24.0417 25.7536 24.0377 25.5811 24.0249 25.4067Z" fill="url(#paint10_linear_527_2730)"/>
<path d="M30.9041 18.9935C30.9029 18.9956 30.9017 18.9977 30.9005 18.9998C29.9353 20.6717 28.3159 21.7306 26.5522 22.0398C26.6503 22.1844 26.7401 22.3318 26.8202 22.4814C27.3257 23.4271 28.093 24.2476 29.0899 24.8231C31.9351 26.4658 35.5731 25.4909 37.2158 22.6459C38.624 20.2066 38.1084 17.1847 36.1398 15.3369C35.275 17.4124 33.2682 18.8928 30.9041 18.9935Z" fill="url(#paint11_linear_527_2730)"/>
<path d="M51.5608 32.123V8.13482H61.0249C62.8365 8.13482 64.3826 8.45888 65.6632 9.107C66.9516 9.74731 67.9316 10.657 68.6032 11.8361C69.2825 13.0074 69.6222 14.3856 69.6222 15.9708C69.6222 17.5638 69.2786 18.9342 68.5914 20.082C67.9043 21.2221 66.9087 22.0967 65.6046 22.7058C64.3084 23.3148 62.7389 23.6194 60.896 23.6194H54.5593V19.5433H60.0761C61.0444 19.5433 61.8487 19.4105 62.489 19.145C63.1293 18.8795 63.6056 18.4813 63.918 17.9503C64.2381 17.4193 64.3982 16.7595 64.3982 15.9708C64.3982 15.1743 64.2381 14.5028 63.918 13.9562C63.6056 13.4096 63.1254 12.9957 62.4773 12.7146C61.837 12.4257 61.0288 12.2812 60.0527 12.2812H56.6325V32.123H51.5608ZM64.5153 21.2065L70.4772 32.123H64.8784L59.0454 21.2065H64.5153Z" fill="#D4D4D8"/>
<path d="M73.1126 32.123V14.1319H78.1024V32.123H73.1126ZM75.6192 11.8127C74.8774 11.8127 74.241 11.5667 73.71 11.0748C73.1868 10.575 72.9252 9.97766 72.9252 9.28269C72.9252 8.59553 73.1868 8.00598 73.71 7.51404C74.241 7.01428 74.8774 6.7644 75.6192 6.7644C76.361 6.7644 76.9935 7.01428 77.5167 7.51404C78.0477 8.00598 78.3132 8.59553 78.3132 9.28269C78.3132 9.97766 78.0477 10.575 77.5167 11.0748C76.9935 11.5667 76.361 11.8127 75.6192 11.8127Z" fill="#D4D4D8"/>
<path d="M88.729 32.4158C87.3624 32.4158 86.1248 32.0644 85.0159 31.3616C83.9149 30.651 83.0404 29.6086 82.3922 28.2343C81.7519 26.8521 81.4318 25.1577 81.4318 23.1508C81.4318 21.0894 81.7636 19.3754 82.4274 18.0089C83.0911 16.6345 83.9735 15.6077 85.0745 14.9283C86.1833 14.2412 87.3976 13.8976 88.7172 13.8976C89.7246 13.8976 90.564 14.0694 91.2355 14.413C91.9149 14.7487 92.4615 15.1704 92.8754 15.678C93.297 16.1777 93.6172 16.6697 93.8358 17.1538H93.9881V8.13482H98.9661V32.123H94.0466V29.2416H93.8358C93.6016 29.7413 93.2697 30.2372 92.8402 30.7291C92.4185 31.2133 91.868 31.6154 91.1887 31.9356C90.5171 32.2557 89.6972 32.4158 88.729 32.4158ZM90.3102 28.4451C91.1145 28.4451 91.7939 28.2265 92.3483 27.7892C92.9105 27.3441 93.34 26.7233 93.6367 25.9268C93.9412 25.1303 94.0935 24.1972 94.0935 23.1274C94.0935 22.0576 93.9451 21.1284 93.6484 20.3397C93.3517 19.5511 92.9222 18.942 92.36 18.5125C91.7978 18.083 91.1145 17.8683 90.3102 17.8683C89.4903 17.8683 88.7992 18.0908 88.237 18.5359C87.6748 18.981 87.2492 19.5979 86.9603 20.3866C86.6714 21.1753 86.5269 22.0889 86.5269 23.1274C86.5269 24.1738 86.6714 25.0991 86.9603 25.9034C87.257 26.6999 87.6826 27.3246 88.237 27.7775C88.7992 28.2226 89.4903 28.4451 90.3102 28.4451Z" fill="#D4D4D8"/>
<path d="M111.197 32.4744C109.378 32.4744 107.804 32.0878 106.477 31.3148C105.157 30.5339 104.138 29.4485 103.42 28.0586C102.702 26.6608 102.342 25.0405 102.342 23.1977C102.342 21.3392 102.702 19.715 103.42 18.3251C104.138 16.9274 105.157 15.842 106.477 15.0689C107.804 14.288 109.378 13.8976 111.197 13.8976C113.017 13.8976 114.586 14.288 115.906 15.0689C117.233 15.842 118.256 16.9274 118.975 18.3251C119.693 19.715 120.052 21.3392 120.052 23.1977C120.052 25.0405 119.693 26.6608 118.975 28.0586C118.256 29.4485 117.233 30.5339 115.906 31.3148C114.586 32.0878 113.017 32.4744 111.197 32.4744ZM111.221 28.6091C112.048 28.6091 112.74 28.3748 113.294 27.9063C113.848 27.43 114.266 26.7819 114.547 25.962C114.836 25.142 114.981 24.2089 114.981 23.1626C114.981 22.1162 114.836 21.1831 114.547 20.3632C114.266 19.5433 113.848 18.8951 113.294 18.4188C112.74 17.9425 112.048 17.7043 111.221 17.7043C110.385 17.7043 109.682 17.9425 109.112 18.4188C108.55 18.8951 108.125 19.5433 107.836 20.3632C107.555 21.1831 107.414 22.1162 107.414 23.1626C107.414 24.2089 107.555 25.142 107.836 25.962C108.125 26.7819 108.55 27.43 109.112 27.9063C109.682 28.3748 110.385 28.6091 111.221 28.6091Z" fill="#D4D4D8"/>
<path d="M123.297 32.123V14.1319H128.134V17.2709H128.322C128.65 16.1543 129.2 15.311 129.973 14.7409C130.746 14.1631 131.636 13.8742 132.644 13.8742C132.894 13.8742 133.163 13.8898 133.452 13.921C133.741 13.9523 133.995 13.9952 134.213 14.0499V18.4774C133.979 18.4071 133.655 18.3446 133.241 18.29C132.827 18.2353 132.449 18.208 132.105 18.208C131.371 18.208 130.715 18.3681 130.137 18.6882C129.567 19.0006 129.114 19.4378 128.779 20.0001C128.451 20.5623 128.287 21.2104 128.287 21.9444V32.123H123.297Z" fill="#D4D4D8"/>
<path d="M136.793 32.123V14.1319H141.783V32.123H136.793ZM139.3 11.8127C138.558 11.8127 137.921 11.5667 137.39 11.0748C136.867 10.575 136.606 9.97766 136.606 9.28269C136.606 8.59553 136.867 8.00598 137.39 7.51404C137.921 7.01428 138.558 6.7644 139.3 6.7644C140.042 6.7644 140.674 7.01428 141.197 7.51404C141.728 8.00598 141.994 8.59553 141.994 9.28269C141.994 9.97766 141.728 10.575 141.197 11.0748C140.674 11.5667 140.042 11.8127 139.3 11.8127Z" fill="#D4D4D8"/>
<path d="M150.91 32.4627C149.762 32.4627 148.739 32.2635 147.841 31.8653C146.943 31.4592 146.233 30.8619 145.71 30.0732C145.194 29.2767 144.937 28.285 144.937 27.0981C144.937 26.0986 145.12 25.2592 145.487 24.5798C145.854 23.9005 146.354 23.3539 146.986 22.94C147.619 22.5262 148.337 22.2138 149.142 22.003C149.954 21.7921 150.805 21.6438 151.695 21.5579C152.741 21.4486 153.585 21.347 154.225 21.2533C154.865 21.1518 155.33 21.0035 155.619 20.8083C155.908 20.613 156.052 20.3241 156.052 19.9415V19.8712C156.052 19.1294 155.818 18.5555 155.349 18.1494C154.889 17.7434 154.233 17.5403 153.382 17.5403C152.484 17.5403 151.769 17.7395 151.238 18.1377C150.707 18.5281 150.356 19.0201 150.184 19.6135L145.569 19.2387C145.803 18.1455 146.264 17.2007 146.951 16.4042C147.638 15.5999 148.525 14.983 149.61 14.5535C150.703 14.1162 151.968 13.8976 153.405 13.8976C154.405 13.8976 155.361 14.0147 156.275 14.249C157.196 14.4832 158.012 14.8464 158.723 15.3383C159.441 15.8302 160.007 16.4627 160.421 17.2358C160.835 18.001 161.042 18.9186 161.042 19.9883V32.123H156.31V29.6281H156.169C155.88 30.1903 155.494 30.6862 155.01 31.1157C154.526 31.5373 153.944 31.8692 153.264 32.1113C152.585 32.3455 151.8 32.4627 150.91 32.4627ZM152.339 29.019C153.073 29.019 153.721 28.8746 154.283 28.5857C154.846 28.2889 155.287 27.8907 155.607 27.3909C155.927 26.8912 156.087 26.3251 156.087 25.6926V23.7833C155.931 23.8849 155.716 23.9786 155.443 24.0645C155.178 24.1425 154.877 24.2167 154.541 24.287C154.205 24.3495 153.87 24.408 153.534 24.4627C153.198 24.5095 152.894 24.5525 152.62 24.5915C152.035 24.6774 151.523 24.8141 151.086 25.0015C150.649 25.1889 150.309 25.4427 150.067 25.7628C149.825 26.0752 149.704 26.4656 149.704 26.9341C149.704 27.6135 149.95 28.1328 150.442 28.492C150.941 28.8433 151.574 29.019 152.339 29.019Z" fill="#D4D4D8"/>
<defs>
<linearGradient id="paint0_linear_527_2730" x1="27.8014" y1="7.10242" x2="27.8014" y2="18.9994" gradientUnits="userSpaceOnUse">
<stop stop-color="#25136D"/>
<stop offset="1" stop-color="#3D9BA2"/>
</linearGradient>
<linearGradient id="paint1_linear_527_2730" x1="20.6724" y1="4.30031" x2="26.6209" y2="14.6035" gradientUnits="userSpaceOnUse">
<stop stop-color="#25136D"/>
<stop offset="1" stop-color="#3D9BA2"/>
</linearGradient>
<linearGradient id="paint2_linear_527_2730" x1="13.0964" y1="5.43874" x2="23.3995" y2="11.3872" gradientUnits="userSpaceOnUse">
<stop stop-color="#25136D"/>
<stop offset="1" stop-color="#3D9BA2"/>
</linearGradient>
<linearGradient id="paint3_linear_527_2730" x1="7.10474" y1="10.2122" x2="19.0017" y2="10.2122" gradientUnits="userSpaceOnUse">
<stop stop-color="#25136D"/>
<stop offset="1" stop-color="#3D9BA2"/>
</linearGradient>
<linearGradient id="paint4_linear_527_2730" x1="4.30155" y1="17.3423" x2="14.6047" y2="11.3938" gradientUnits="userSpaceOnUse">
<stop stop-color="#25136D"/>
<stop offset="1" stop-color="#3D9BA2"/>
</linearGradient>
<linearGradient id="paint5_linear_527_2730" x1="5.43901" y1="24.918" x2="11.3875" y2="14.6149" gradientUnits="userSpaceOnUse">
<stop stop-color="#25136D"/>
<stop offset="1" stop-color="#3D9BA2"/>
</linearGradient>
<linearGradient id="paint6_linear_527_2730" x1="10.2116" y1="30.9097" x2="10.2116" y2="19.0127" gradientUnits="userSpaceOnUse">
<stop stop-color="#25136D"/>
<stop offset="1" stop-color="#3D9BA2"/>
</linearGradient>
<linearGradient id="paint7_linear_527_2730" x1="17.3404" y1="33.7132" x2="11.3919" y2="23.4101" gradientUnits="userSpaceOnUse">
<stop stop-color="#25136D"/>
<stop offset="1" stop-color="#3D9BA2"/>
</linearGradient>
<linearGradient id="paint8_linear_527_2730" x1="24.9167" y1="32.5755" x2="14.6136" y2="26.6268" gradientUnits="userSpaceOnUse">
<stop stop-color="#25136D"/>
<stop offset="1" stop-color="#3D9BA2"/>
</linearGradient>
<linearGradient id="paint9_linear_527_2730" x1="30.9087" y1="27.8032" x2="19.0117" y2="27.8032" gradientUnits="userSpaceOnUse">
<stop stop-color="#25136D"/>
<stop offset="1" stop-color="#3D9BA2"/>
</linearGradient>
<linearGradient id="paint10_linear_527_2730" x1="33.7118" y1="20.6741" x2="23.4087" y2="26.6226" gradientUnits="userSpaceOnUse">
<stop stop-color="#25136D"/>
<stop offset="1" stop-color="#3D9BA2"/>
</linearGradient>
<linearGradient id="paint11_linear_527_2730" x1="32.575" y1="13.0978" x2="26.6265" y2="23.4009" gradientUnits="userSpaceOnUse">
<stop stop-color="#25136D"/>
<stop offset="1" stop-color="#3D9BA2"/>
</linearGradient>
</defs>
</svg>
